M48
METRIC,LZ,000.000
;FILE_FORMAT=3:3
;TYPE=PLATED
;Layer: PTH_Through
;EasyEDA v6.5.44, 2024-08-27 10:33:55
;3fde5a6329554247a190ecd3801b01c9,e183ea938b1e48739b2e3e039e877233,10
;Gerber Generator version 0.2
;Holesize 1 = 0.889 mm
T01C0.889
;Holesize 2 = 0.901 mm
T02C0.901
%
G05
G90
T01
X058293Y126111
X060833Y126111
X063373Y126111
X065913Y126111
X068453Y126111
X070993Y126111
T02
X052070Y088138
X036830Y090678
X036830Y095759
X036830Y100839
X036830Y105919
X036830Y110999
X036830Y116079
X036830Y121159
X052070Y123698
X052070Y118617
X052070Y113537
X052070Y108457
X052070Y103377
X052070Y098297
X052070Y093218
X052070Y090678
X052070Y095758
X052070Y100838
X052070Y105918
X052070Y110998
X052070Y116078
X052070Y121158
X036830Y123698
X036830Y118618
X036830Y113538
X036830Y108458
X036830Y103378
X036830Y098298
X036830Y093218
X036830Y088138
M30
