G04 Layer: TopSolderMaskLayer*
G04 EasyEDA v6.5.44, 2024-08-27 10:33:55*
G04 3fde5a6329554247a190ecd3801b01c9,e183ea938b1e48739b2e3e039e877233,10*
G04 Gerber Generator version 0.2*
G04 Scale: 100 percent, Rotated: No, Reflected: No *
G04 Dimensions in millimeters *
G04 leading zeros omitted , absolute positions ,4 integer and 5 decimal *
%FSLAX45Y45*%
%MOMM*%

%AMMACRO1*4,1,8,-0.8852,-0.7934,-0.9149,-0.7634,-0.9149,0.7637,-0.8852,0.7934,0.8849,0.7934,0.9149,0.7637,0.9149,-0.7634,0.8849,-0.7934,-0.8852,-0.7934,0*%
%AMMACRO2*4,1,8,-0.8852,-0.7932,-0.9149,-0.7633,-0.9149,0.7635,-0.8852,0.7932,0.8849,0.7932,0.9149,0.7635,0.9149,-0.7633,0.8849,-0.7932,-0.8852,-0.7932,0*%
%AMMACRO3*4,1,8,-0.1831,-0.2351,-0.2129,-0.2051,-0.2129,0.2054,-0.1831,0.2351,0.1829,0.2351,0.2129,0.2054,0.2129,-0.2051,0.1829,-0.2351,-0.1831,-0.2351,0*%
%AMMACRO4*4,1,8,-0.8085,-0.8382,-0.8382,-0.8082,-0.8382,0.8085,-0.8085,0.8382,0.8082,0.8382,0.8382,0.8085,0.8382,-0.8082,0.8082,-0.8382,-0.8085,-0.8382,0*%
%AMMACRO5*4,1,8,-0.4161,-0.3208,-0.4458,-0.2908,-0.4458,0.2911,-0.4161,0.3208,0.4158,0.3208,0.4458,0.2911,0.4458,-0.2908,0.4158,-0.3208,-0.4161,-0.3208,0*%
%AMMACRO6*4,1,8,-1.5211,-0.5508,-1.5508,-0.5208,-1.5508,0.5211,-1.5211,0.5508,1.5208,0.5508,1.5508,0.5211,1.5508,-0.5208,1.5208,-0.5508,-1.5211,-0.5508,0*%
%AMMACRO7*4,1,8,-2.5211,-0.7008,-2.5508,-0.6708,-2.5508,0.6711,-2.5211,0.7008,2.5208,0.7008,2.5508,0.6711,2.5508,-0.6708,2.5208,-0.7008,-2.5211,-0.7008,0*%
%AMMACRO8*4,1,8,-0.5481,-0.4638,-0.5778,-0.4338,-0.5778,0.4341,-0.5481,0.4638,0.5479,0.4638,0.5778,0.4341,0.5778,-0.4338,0.5479,-0.4638,-0.5481,-0.4638,0*%
%AMMACRO9*4,1,8,-0.8212,-0.8509,-0.8509,-0.8209,-0.8509,0.8212,-0.8212,0.8509,0.8209,0.8509,0.8509,0.8212,0.8509,-0.8209,0.8209,-0.8509,-0.8212,-0.8509,0*%
%ADD10MACRO1*%
%ADD11MACRO2*%
%ADD12MACRO3*%
%ADD13C,1.6764*%
%ADD14MACRO4*%
%ADD15MACRO5*%
%ADD16MACRO6*%
%ADD17MACRO7*%
%ADD18MACRO8*%
%ADD19MACRO9*%
%ADD20C,1.7016*%

%LPD*%
D10*
G01*
X3200400Y11906745D03*
D11*
G01*
X3200400Y11588242D03*
D10*
G01*
X3187700Y9773145D03*
D11*
G01*
X3187700Y9454642D03*
D12*
G01*
X1778000Y11504180D03*
G01*
X1778000Y11559019D03*
G01*
X1803400Y9395980D03*
G01*
X1803400Y9450819D03*
D13*
G01*
X5829300Y12611100D03*
G01*
X6083300Y12611100D03*
G01*
X6337300Y12611100D03*
G01*
X6591300Y12611100D03*
G01*
X6845300Y12611100D03*
D14*
G01*
X7099300Y12611100D03*
D15*
G01*
X1591208Y11950700D03*
G01*
X1482191Y11950700D03*
G01*
X2086508Y11950700D03*
G01*
X1977491Y11950700D03*
G01*
X1603908Y9867900D03*
G01*
X1494891Y9867900D03*
G01*
X2086508Y9867900D03*
G01*
X1977491Y9867900D03*
D16*
G01*
X851700Y11760187D03*
D17*
G01*
X951699Y11336197D03*
G01*
X951699Y12184202D03*
D16*
G01*
X851700Y9651987D03*
D17*
G01*
X951699Y9227997D03*
G01*
X951699Y10076002D03*
D18*
G01*
X2463800Y11734800D03*
G01*
X2667000Y11800839D03*
G01*
X2667000Y11668760D03*
G01*
X2413000Y9601200D03*
G01*
X2616200Y9667239D03*
G01*
X2616200Y9535160D03*
D19*
G01*
X5207000Y8813800D03*
D20*
G01*
X3683000Y9067800D03*
G01*
X3683000Y9575800D03*
G01*
X3683000Y10083800D03*
G01*
X3683000Y10591800D03*
G01*
X3683000Y11099800D03*
G01*
X3683000Y11607800D03*
G01*
X3683000Y12115800D03*
G01*
X5207000Y12369800D03*
G01*
X5207000Y11861800D03*
G01*
X5207000Y11353800D03*
G01*
X5207000Y10845800D03*
G01*
X5207000Y10337800D03*
G01*
X5207000Y9829800D03*
G01*
X5207000Y9321800D03*
G01*
X5207000Y9067800D03*
G01*
X5207000Y9575800D03*
G01*
X5207000Y10083800D03*
G01*
X5207000Y10591800D03*
G01*
X5207000Y11099800D03*
G01*
X5207000Y11607800D03*
G01*
X5207000Y12115800D03*
G01*
X3683000Y12369800D03*
G01*
X3683000Y11861800D03*
G01*
X3683000Y11353800D03*
G01*
X3683000Y10845800D03*
G01*
X3683000Y10337800D03*
G01*
X3683000Y9829800D03*
G01*
X3683000Y9321800D03*
D19*
G01*
X3683000Y8813800D03*
M02*
