G04 Layer: TopSilkscreenLayer*
G04 EasyEDA v6.5.44, 2024-08-27 10:33:55*
G04 3fde5a6329554247a190ecd3801b01c9,e183ea938b1e48739b2e3e039e877233,10*
G04 Gerber Generator version 0.2*
G04 Scale: 100 percent, Rotated: No, Reflected: No *
G04 Dimensions in millimeters *
G04 leading zeros omitted , absolute positions ,4 integer and 5 decimal *
%FSLAX45Y45*%
%MOMM*%

%ADD10C,0.1524*%
%ADD11C,0.1500*%
%ADD12C,0.2032*%
%ADD13C,0.2030*%
%ADD14C,0.2540*%
%ADD15C,0.1520*%
%ADD16C,0.2489*%
%ADD17C,0.0123*%

%LPD*%
D10*
X1612900Y12521184D02*
G01*
X1612900Y12377928D01*
X1612900Y12521184D02*
G01*
X1674368Y12521184D01*
X1694687Y12514326D01*
X1701545Y12507468D01*
X1708404Y12494005D01*
X1708404Y12480289D01*
X1701545Y12466574D01*
X1694687Y12459715D01*
X1674368Y12452858D01*
X1612900Y12452858D01*
X1660652Y12452858D02*
G01*
X1708404Y12377928D01*
X1753362Y12521184D02*
G01*
X1753362Y12377928D01*
X1753362Y12521184D02*
G01*
X1842007Y12521184D01*
X1753362Y12452858D02*
G01*
X1807971Y12452858D01*
X1998725Y12487147D02*
G01*
X1998725Y12494005D01*
X2005584Y12507468D01*
X2012441Y12514326D01*
X2026158Y12521184D01*
X2053336Y12521184D01*
X2067052Y12514326D01*
X2073909Y12507468D01*
X2080513Y12494005D01*
X2080513Y12480289D01*
X2073909Y12466574D01*
X2060193Y12446254D01*
X1991868Y12377928D01*
X2087372Y12377928D01*
X2139188Y12411963D02*
G01*
X2132329Y12405360D01*
X2139188Y12398502D01*
X2146045Y12405360D01*
X2139188Y12411963D01*
X2259329Y12521184D02*
G01*
X2191004Y12425679D01*
X2293365Y12425679D01*
X2259329Y12521184D02*
G01*
X2259329Y12377928D01*
X2440686Y12487147D02*
G01*
X2433827Y12500610D01*
X2420111Y12514326D01*
X2406650Y12521184D01*
X2379218Y12521184D01*
X2365502Y12514326D01*
X2352040Y12500610D01*
X2345181Y12487147D01*
X2338324Y12466574D01*
X2338324Y12432537D01*
X2345181Y12411963D01*
X2352040Y12398502D01*
X2365502Y12384786D01*
X2379218Y12377928D01*
X2406650Y12377928D01*
X2420111Y12384786D01*
X2433827Y12398502D01*
X2440686Y12411963D01*
X2440686Y12432537D01*
X2406650Y12432537D02*
G01*
X2440686Y12432537D01*
X2485643Y12521184D02*
G01*
X2485643Y12377928D01*
X2581147Y12521184D02*
G01*
X2581147Y12377928D01*
X2485643Y12452858D02*
G01*
X2581147Y12452858D01*
X2701036Y12473431D02*
G01*
X2626106Y12377928D01*
X2626106Y12473431D02*
G01*
X2701036Y12473431D01*
X2626106Y12377928D02*
G01*
X2701036Y12377928D01*
X1612900Y10476484D02*
G01*
X1612900Y10333228D01*
X1612900Y10476484D02*
G01*
X1674368Y10476484D01*
X1694687Y10469626D01*
X1701545Y10462768D01*
X1708404Y10449305D01*
X1708404Y10435589D01*
X1701545Y10421874D01*
X1694687Y10415015D01*
X1674368Y10408158D01*
X1612900Y10408158D01*
X1660652Y10408158D02*
G01*
X1708404Y10333228D01*
X1753362Y10476484D02*
G01*
X1753362Y10333228D01*
X1753362Y10476484D02*
G01*
X1842007Y10476484D01*
X1753362Y10408158D02*
G01*
X1807971Y10408158D01*
X2073909Y10476484D02*
G01*
X2005584Y10476484D01*
X1998725Y10415015D01*
X2005584Y10421874D01*
X2026158Y10428731D01*
X2046477Y10428731D01*
X2067052Y10421874D01*
X2080513Y10408158D01*
X2087372Y10387837D01*
X2087372Y10374121D01*
X2080513Y10353802D01*
X2067052Y10340086D01*
X2046477Y10333228D01*
X2026158Y10333228D01*
X2005584Y10340086D01*
X1998725Y10346944D01*
X1991868Y10360660D01*
X2139188Y10367263D02*
G01*
X2132329Y10360660D01*
X2139188Y10353802D01*
X2146045Y10360660D01*
X2139188Y10367263D01*
X2231897Y10476484D02*
G01*
X2211577Y10469626D01*
X2197861Y10449305D01*
X2191004Y10415015D01*
X2191004Y10394695D01*
X2197861Y10360660D01*
X2211577Y10340086D01*
X2231897Y10333228D01*
X2245613Y10333228D01*
X2266188Y10340086D01*
X2279650Y10360660D01*
X2286508Y10394695D01*
X2286508Y10415015D01*
X2279650Y10449305D01*
X2266188Y10469626D01*
X2245613Y10476484D01*
X2231897Y10476484D01*
X2433827Y10442447D02*
G01*
X2426970Y10455910D01*
X2413254Y10469626D01*
X2399791Y10476484D01*
X2372359Y10476484D01*
X2358897Y10469626D01*
X2345181Y10455910D01*
X2338324Y10442447D01*
X2331465Y10421874D01*
X2331465Y10387837D01*
X2338324Y10367263D01*
X2345181Y10353802D01*
X2358897Y10340086D01*
X2372359Y10333228D01*
X2399791Y10333228D01*
X2413254Y10340086D01*
X2426970Y10353802D01*
X2433827Y10367263D01*
X2433827Y10387837D01*
X2399791Y10387837D02*
G01*
X2433827Y10387837D01*
X2478786Y10476484D02*
G01*
X2478786Y10333228D01*
X2574290Y10476484D02*
G01*
X2574290Y10333228D01*
X2478786Y10408158D02*
G01*
X2574290Y10408158D01*
X2694177Y10428731D02*
G01*
X2619247Y10333228D01*
X2619247Y10428731D02*
G01*
X2694177Y10428731D01*
X2619247Y10333228D02*
G01*
X2694177Y10333228D01*
X1206500Y8596884D02*
G01*
X1206500Y8453628D01*
X1206500Y8596884D02*
G01*
X1267968Y8596884D01*
X1288287Y8590026D01*
X1295145Y8583168D01*
X1302004Y8569705D01*
X1302004Y8555989D01*
X1295145Y8542274D01*
X1288287Y8535415D01*
X1267968Y8528558D01*
X1206500Y8528558D01*
X1254252Y8528558D02*
G01*
X1302004Y8453628D01*
X1346962Y8596884D02*
G01*
X1346962Y8453628D01*
X1346962Y8596884D02*
G01*
X1435607Y8596884D01*
X1346962Y8528558D02*
G01*
X1401571Y8528558D01*
X1585468Y8596884D02*
G01*
X1585468Y8453628D01*
X1585468Y8596884D02*
G01*
X1674113Y8596884D01*
X1585468Y8528558D02*
G01*
X1640078Y8528558D01*
X1585468Y8453628D02*
G01*
X1674113Y8453628D01*
X1719326Y8549131D02*
G01*
X1719326Y8453628D01*
X1719326Y8521954D02*
G01*
X1739645Y8542274D01*
X1753362Y8549131D01*
X1773681Y8549131D01*
X1787397Y8542274D01*
X1794255Y8521954D01*
X1794255Y8453628D01*
X1839213Y8508237D02*
G01*
X1921002Y8508237D01*
X1921002Y8521954D01*
X1914144Y8535415D01*
X1907286Y8542274D01*
X1893823Y8549131D01*
X1873250Y8549131D01*
X1859787Y8542274D01*
X1846071Y8528558D01*
X1839213Y8508237D01*
X1839213Y8494521D01*
X1846071Y8474202D01*
X1859787Y8460486D01*
X1873250Y8453628D01*
X1893823Y8453628D01*
X1907286Y8460486D01*
X1921002Y8474202D01*
X1965959Y8549131D02*
G01*
X1965959Y8453628D01*
X1965959Y8508237D02*
G01*
X1972818Y8528558D01*
X1986534Y8542274D01*
X2000250Y8549131D01*
X2020570Y8549131D01*
X2147315Y8549131D02*
G01*
X2147315Y8440165D01*
X2140711Y8419592D01*
X2133854Y8412734D01*
X2120138Y8405876D01*
X2099563Y8405876D01*
X2086102Y8412734D01*
X2147315Y8528558D02*
G01*
X2133854Y8542274D01*
X2120138Y8549131D01*
X2099563Y8549131D01*
X2086102Y8542274D01*
X2072386Y8528558D01*
X2065527Y8508237D01*
X2065527Y8494521D01*
X2072386Y8474202D01*
X2086102Y8460486D01*
X2099563Y8453628D01*
X2120138Y8453628D01*
X2133854Y8460486D01*
X2147315Y8474202D01*
X2199131Y8549131D02*
G01*
X2240025Y8453628D01*
X2280920Y8549131D02*
G01*
X2240025Y8453628D01*
X2226563Y8426450D01*
X2212847Y8412734D01*
X2199131Y8405876D01*
X2192527Y8405876D01*
X2431034Y8596884D02*
G01*
X2431034Y8453628D01*
X2526538Y8596884D02*
G01*
X2526538Y8453628D01*
X2431034Y8528558D02*
G01*
X2526538Y8528558D01*
X2653284Y8549131D02*
G01*
X2653284Y8453628D01*
X2653284Y8528558D02*
G01*
X2639568Y8542274D01*
X2626106Y8549131D01*
X2605531Y8549131D01*
X2592070Y8542274D01*
X2578354Y8528558D01*
X2571495Y8508237D01*
X2571495Y8494521D01*
X2578354Y8474202D01*
X2592070Y8460486D01*
X2605531Y8453628D01*
X2626106Y8453628D01*
X2639568Y8460486D01*
X2653284Y8474202D01*
X2698241Y8549131D02*
G01*
X2698241Y8453628D01*
X2698241Y8508237D02*
G01*
X2705100Y8528558D01*
X2718815Y8542274D01*
X2732531Y8549131D01*
X2752852Y8549131D01*
X2797809Y8549131D02*
G01*
X2838704Y8453628D01*
X2879597Y8549131D02*
G01*
X2838704Y8453628D01*
X2924556Y8508237D02*
G01*
X3006597Y8508237D01*
X3006597Y8521954D01*
X2999740Y8535415D01*
X2992881Y8542274D01*
X2979165Y8549131D01*
X2958845Y8549131D01*
X2945129Y8542274D01*
X2931413Y8528558D01*
X2924556Y8508237D01*
X2924556Y8494521D01*
X2931413Y8474202D01*
X2945129Y8460486D01*
X2958845Y8453628D01*
X2979165Y8453628D01*
X2992881Y8460486D01*
X3006597Y8474202D01*
X3126486Y8528558D02*
G01*
X3119627Y8542274D01*
X3099308Y8549131D01*
X3078734Y8549131D01*
X3058413Y8542274D01*
X3051556Y8528558D01*
X3058413Y8515095D01*
X3071875Y8508237D01*
X3106165Y8501379D01*
X3119627Y8494521D01*
X3126486Y8481060D01*
X3126486Y8474202D01*
X3119627Y8460486D01*
X3099308Y8453628D01*
X3078734Y8453628D01*
X3058413Y8460486D01*
X3051556Y8474202D01*
X3192018Y8596884D02*
G01*
X3192018Y8481060D01*
X3198875Y8460486D01*
X3212338Y8453628D01*
X3226054Y8453628D01*
X3171443Y8549131D02*
G01*
X3219195Y8549131D01*
X3271011Y8508237D02*
G01*
X3352800Y8508237D01*
X3352800Y8521954D01*
X3345941Y8535415D01*
X3339338Y8542274D01*
X3325622Y8549131D01*
X3305047Y8549131D01*
X3291586Y8542274D01*
X3277870Y8528558D01*
X3271011Y8508237D01*
X3271011Y8494521D01*
X3277870Y8474202D01*
X3291586Y8460486D01*
X3305047Y8453628D01*
X3325622Y8453628D01*
X3339338Y8460486D01*
X3352800Y8474202D01*
X3397758Y8549131D02*
G01*
X3397758Y8453628D01*
X3397758Y8508237D02*
G01*
X3404615Y8528558D01*
X3418331Y8542274D01*
X3432047Y8549131D01*
X3452368Y8549131D01*
X6526784Y11595100D02*
G01*
X6383527Y11595100D01*
X6526784Y11595100D02*
G01*
X6383527Y11540489D01*
X6526784Y11486134D02*
G01*
X6383527Y11540489D01*
X6526784Y11486134D02*
G01*
X6383527Y11486134D01*
X6526784Y11440921D02*
G01*
X6519925Y11434318D01*
X6526784Y11427460D01*
X6533641Y11434318D01*
X6526784Y11440921D01*
X6479031Y11434318D02*
G01*
X6383527Y11434318D01*
X6458458Y11300460D02*
G01*
X6472174Y11314176D01*
X6479031Y11327892D01*
X6479031Y11348212D01*
X6472174Y11361928D01*
X6458458Y11375644D01*
X6438138Y11382247D01*
X6424422Y11382247D01*
X6404102Y11375644D01*
X6390386Y11361928D01*
X6383527Y11348212D01*
X6383527Y11327892D01*
X6390386Y11314176D01*
X6404102Y11300460D01*
X6479031Y11255502D02*
G01*
X6383527Y11255502D01*
X6438138Y11255502D02*
G01*
X6458458Y11248644D01*
X6472174Y11235181D01*
X6479031Y11221465D01*
X6479031Y11200892D01*
X6479031Y11121897D02*
G01*
X6472174Y11135613D01*
X6458458Y11149076D01*
X6438138Y11155934D01*
X6424422Y11155934D01*
X6404102Y11149076D01*
X6390386Y11135613D01*
X6383527Y11121897D01*
X6383527Y11101578D01*
X6390386Y11087862D01*
X6404102Y11074145D01*
X6424422Y11067287D01*
X6438138Y11067287D01*
X6458458Y11074145D01*
X6472174Y11087862D01*
X6479031Y11101578D01*
X6479031Y11121897D01*
X6506209Y10926826D02*
G01*
X6519925Y10940542D01*
X6526784Y10961115D01*
X6526784Y10988294D01*
X6519925Y11008613D01*
X6506209Y11022329D01*
X6492747Y11022329D01*
X6479031Y11015471D01*
X6472174Y11008613D01*
X6465315Y10995152D01*
X6451854Y10954258D01*
X6444995Y10940542D01*
X6438138Y10933684D01*
X6424422Y10926826D01*
X6404102Y10926826D01*
X6390386Y10940542D01*
X6383527Y10961115D01*
X6383527Y10988294D01*
X6390386Y11008613D01*
X6404102Y11022329D01*
X6526784Y10881868D02*
G01*
X6383527Y10881868D01*
X6526784Y10881868D02*
G01*
X6526784Y10834115D01*
X6519925Y10813795D01*
X6506209Y10800079D01*
X6492747Y10793221D01*
X6472174Y10786363D01*
X6438138Y10786363D01*
X6417563Y10793221D01*
X6404102Y10800079D01*
X6390386Y10813795D01*
X6383527Y10834115D01*
X6383527Y10881868D01*
X6492747Y10534142D02*
G01*
X6506209Y10541000D01*
X6519925Y10554715D01*
X6526784Y10568178D01*
X6526784Y10595610D01*
X6519925Y10609071D01*
X6506209Y10622787D01*
X6492747Y10629645D01*
X6472174Y10636504D01*
X6438138Y10636504D01*
X6417563Y10629645D01*
X6404102Y10622787D01*
X6390386Y10609071D01*
X6383527Y10595610D01*
X6383527Y10568178D01*
X6390386Y10554715D01*
X6404102Y10541000D01*
X6417563Y10534142D01*
X6479031Y10407395D02*
G01*
X6383527Y10407395D01*
X6458458Y10407395D02*
G01*
X6472174Y10421112D01*
X6479031Y10434574D01*
X6479031Y10455147D01*
X6472174Y10468863D01*
X6458458Y10482326D01*
X6438138Y10489184D01*
X6424422Y10489184D01*
X6404102Y10482326D01*
X6390386Y10468863D01*
X6383527Y10455147D01*
X6383527Y10434574D01*
X6390386Y10421112D01*
X6404102Y10407395D01*
X6479031Y10362437D02*
G01*
X6383527Y10362437D01*
X6438138Y10362437D02*
G01*
X6458458Y10355579D01*
X6472174Y10341863D01*
X6479031Y10328402D01*
X6479031Y10307828D01*
X6526784Y10181081D02*
G01*
X6383527Y10181081D01*
X6458458Y10181081D02*
G01*
X6472174Y10194544D01*
X6479031Y10208260D01*
X6479031Y10228834D01*
X6472174Y10242295D01*
X6458458Y10256012D01*
X6438138Y10262870D01*
X6424422Y10262870D01*
X6404102Y10256012D01*
X6390386Y10242295D01*
X6383527Y10228834D01*
X6383527Y10208260D01*
X6390386Y10194544D01*
X6404102Y10181081D01*
X6526784Y9976358D02*
G01*
X6383527Y10030968D01*
X6526784Y9976358D02*
G01*
X6383527Y9922002D01*
X6431279Y10010647D02*
G01*
X6431279Y9942321D01*
X6526784Y9795002D02*
G01*
X6383527Y9795002D01*
X6458458Y9795002D02*
G01*
X6472174Y9808718D01*
X6479031Y9822434D01*
X6479031Y9842754D01*
X6472174Y9856470D01*
X6458458Y9870186D01*
X6438138Y9877044D01*
X6424422Y9877044D01*
X6404102Y9870186D01*
X6390386Y9856470D01*
X6383527Y9842754D01*
X6383527Y9822434D01*
X6390386Y9808718D01*
X6404102Y9795002D01*
X6479031Y9668255D02*
G01*
X6383527Y9668255D01*
X6458458Y9668255D02*
G01*
X6472174Y9681971D01*
X6479031Y9695434D01*
X6479031Y9716008D01*
X6472174Y9729724D01*
X6458458Y9743186D01*
X6438138Y9750044D01*
X6424422Y9750044D01*
X6404102Y9743186D01*
X6390386Y9729724D01*
X6383527Y9716008D01*
X6383527Y9695434D01*
X6390386Y9681971D01*
X6404102Y9668255D01*
X6479031Y9623297D02*
G01*
X6335775Y9623297D01*
X6458458Y9623297D02*
G01*
X6472174Y9609581D01*
X6479031Y9596120D01*
X6479031Y9575545D01*
X6472174Y9561829D01*
X6458458Y9548368D01*
X6438138Y9541510D01*
X6424422Y9541510D01*
X6404102Y9548368D01*
X6390386Y9561829D01*
X6383527Y9575545D01*
X6383527Y9596120D01*
X6390386Y9609581D01*
X6404102Y9623297D01*
X6526784Y9475978D02*
G01*
X6410959Y9475978D01*
X6390386Y9469120D01*
X6383527Y9455658D01*
X6383527Y9441942D01*
X6479031Y9496552D02*
G01*
X6479031Y9448800D01*
X6438138Y9396984D02*
G01*
X6438138Y9315195D01*
X6451854Y9315195D01*
X6465315Y9321800D01*
X6472174Y9328658D01*
X6479031Y9342374D01*
X6479031Y9362947D01*
X6472174Y9376410D01*
X6458458Y9390126D01*
X6438138Y9396984D01*
X6424422Y9396984D01*
X6404102Y9390126D01*
X6390386Y9376410D01*
X6383527Y9362947D01*
X6383527Y9342374D01*
X6390386Y9328658D01*
X6404102Y9315195D01*
X6479031Y9269984D02*
G01*
X6383527Y9269984D01*
X6438138Y9269984D02*
G01*
X6458458Y9263379D01*
X6472174Y9249663D01*
X6479031Y9235947D01*
X6479031Y9215628D01*
X2958591Y11825478D02*
G01*
X2948177Y11820144D01*
X2937763Y11809729D01*
X2932684Y11799570D01*
X2932684Y11778742D01*
X2937763Y11768328D01*
X2948177Y11757913D01*
X2958591Y11752579D01*
X2974340Y11747500D01*
X3000247Y11747500D01*
X3015741Y11752579D01*
X3026156Y11757913D01*
X3036570Y11768328D01*
X3041650Y11778742D01*
X3041650Y11799570D01*
X3036570Y11809729D01*
X3026156Y11820144D01*
X3015741Y11825478D01*
X2953511Y11859768D02*
G01*
X2948177Y11870181D01*
X2932684Y11885676D01*
X3041650Y11885676D01*
X2945891Y9691878D02*
G01*
X2935477Y9686544D01*
X2925063Y9676129D01*
X2919984Y9665970D01*
X2919984Y9645142D01*
X2925063Y9634728D01*
X2935477Y9624313D01*
X2945891Y9618979D01*
X2961640Y9613900D01*
X2987547Y9613900D01*
X3003041Y9618979D01*
X3013456Y9624313D01*
X3023870Y9634728D01*
X3028950Y9645142D01*
X3028950Y9665970D01*
X3023870Y9676129D01*
X3013456Y9686544D01*
X3003041Y9691878D01*
X2919984Y9777984D02*
G01*
X2992627Y9726168D01*
X2992627Y9804145D01*
X2919984Y9777984D02*
G01*
X3028950Y9777984D01*
X1943608Y11453621D02*
G01*
X1954022Y11458955D01*
X1964436Y11469370D01*
X1969515Y11479529D01*
X1969515Y11500358D01*
X1964436Y11510771D01*
X1954022Y11521186D01*
X1943608Y11526520D01*
X1927860Y11531600D01*
X1901952Y11531600D01*
X1886457Y11526520D01*
X1876044Y11521186D01*
X1865629Y11510771D01*
X1860550Y11500358D01*
X1860550Y11479529D01*
X1865629Y11469370D01*
X1876044Y11458955D01*
X1886457Y11453621D01*
X1943608Y11414252D02*
G01*
X1948688Y11414252D01*
X1959102Y11408918D01*
X1964436Y11403837D01*
X1969515Y11393424D01*
X1969515Y11372595D01*
X1964436Y11362181D01*
X1959102Y11357102D01*
X1948688Y11351768D01*
X1938274Y11351768D01*
X1927860Y11357102D01*
X1912365Y11367515D01*
X1860550Y11419331D01*
X1860550Y11346687D01*
X1969008Y9345421D02*
G01*
X1979422Y9350755D01*
X1989836Y9361170D01*
X1994915Y9371329D01*
X1994915Y9392158D01*
X1989836Y9402571D01*
X1979422Y9412986D01*
X1969008Y9418320D01*
X1953259Y9423400D01*
X1927352Y9423400D01*
X1911857Y9418320D01*
X1901444Y9412986D01*
X1891029Y9402571D01*
X1885950Y9392158D01*
X1885950Y9371329D01*
X1891029Y9361170D01*
X1901444Y9350755D01*
X1911857Y9345421D01*
X1994915Y9300718D02*
G01*
X1994915Y9243568D01*
X1953259Y9274810D01*
X1953259Y9259315D01*
X1948179Y9248902D01*
X1943100Y9243568D01*
X1927352Y9238487D01*
X1916937Y9238487D01*
X1901444Y9243568D01*
X1891029Y9253981D01*
X1885950Y9269729D01*
X1885950Y9285224D01*
X1891029Y9300718D01*
X1896110Y9306052D01*
X1906523Y9311131D01*
X6437629Y12343384D02*
G01*
X6437629Y12426442D01*
X6442963Y12442189D01*
X6448043Y12447270D01*
X6458458Y12452350D01*
X6468872Y12452350D01*
X6479286Y12447270D01*
X6484620Y12442189D01*
X6489700Y12426442D01*
X6489700Y12416028D01*
X6403340Y12364212D02*
G01*
X6393179Y12358878D01*
X6377431Y12343384D01*
X6377431Y12452350D01*
X1536700Y12142215D02*
G01*
X1536700Y12033250D01*
X1536700Y12033250D02*
G01*
X1598929Y12033250D01*
X1633220Y12121387D02*
G01*
X1643634Y12126721D01*
X1659381Y12142215D01*
X1659381Y12033250D01*
X2032000Y12142215D02*
G01*
X2032000Y12033250D01*
X2032000Y12033250D02*
G01*
X2094229Y12033250D01*
X2133854Y12116308D02*
G01*
X2133854Y12121387D01*
X2138934Y12131802D01*
X2144268Y12137136D01*
X2154681Y12142215D01*
X2175509Y12142215D01*
X2185670Y12137136D01*
X2191004Y12131802D01*
X2196084Y12121387D01*
X2196084Y12110974D01*
X2191004Y12100560D01*
X2180590Y12085065D01*
X2128520Y12033250D01*
X2201418Y12033250D01*
X1549400Y10059415D02*
G01*
X1549400Y9950450D01*
X1549400Y9950450D02*
G01*
X1611629Y9950450D01*
X1656334Y10059415D02*
G01*
X1713484Y10059415D01*
X1682495Y10017760D01*
X1697989Y10017760D01*
X1708404Y10012679D01*
X1713484Y10007600D01*
X1718818Y9991852D01*
X1718818Y9981437D01*
X1713484Y9965944D01*
X1703070Y9955529D01*
X1687576Y9950450D01*
X1672081Y9950450D01*
X1656334Y9955529D01*
X1651254Y9960610D01*
X1645920Y9971024D01*
X2032000Y10059415D02*
G01*
X2032000Y9950450D01*
X2032000Y9950450D02*
G01*
X2094229Y9950450D01*
X2180590Y10059415D02*
G01*
X2128520Y9986771D01*
X2206497Y9986771D01*
X2180590Y10059415D02*
G01*
X2180590Y9950450D01*
X-446316Y11747500D02*
G01*
X-337350Y11747500D01*
X-446316Y11747500D02*
G01*
X-446316Y11794236D01*
X-441236Y11809729D01*
X-435902Y11815063D01*
X-425488Y11820144D01*
X-415074Y11820144D01*
X-404660Y11815063D01*
X-399580Y11809729D01*
X-394500Y11794236D01*
X-394500Y11747500D01*
X-394500Y11783821D02*
G01*
X-337350Y11820144D01*
X-446316Y11854434D02*
G01*
X-337350Y11854434D01*
X-446316Y11854434D02*
G01*
X-446316Y11921997D01*
X-394500Y11854434D02*
G01*
X-394500Y11896089D01*
X-425488Y11956287D02*
G01*
X-430822Y11966702D01*
X-446316Y11982450D01*
X-337350Y11982450D01*
X-446316Y9639300D02*
G01*
X-337350Y9639300D01*
X-446316Y9639300D02*
G01*
X-446316Y9686036D01*
X-441236Y9701529D01*
X-435902Y9706863D01*
X-425488Y9711944D01*
X-415074Y9711944D01*
X-404660Y9706863D01*
X-399580Y9701529D01*
X-394500Y9686036D01*
X-394500Y9639300D01*
X-394500Y9675621D02*
G01*
X-337350Y9711944D01*
X-446316Y9746234D02*
G01*
X-337350Y9746234D01*
X-446316Y9746234D02*
G01*
X-446316Y9813797D01*
X-394500Y9746234D02*
G01*
X-394500Y9787889D01*
X-420408Y9853421D02*
G01*
X-425488Y9853421D01*
X-435902Y9858502D01*
X-441236Y9863836D01*
X-446316Y9874250D01*
X-446316Y9894824D01*
X-441236Y9905237D01*
X-435902Y9910571D01*
X-425488Y9915652D01*
X-415074Y9915652D01*
X-404660Y9910571D01*
X-389166Y9900158D01*
X-337350Y9848087D01*
X-337350Y9920986D01*
X2565400Y11989815D02*
G01*
X2565400Y11911837D01*
X2570479Y11896344D01*
X2580893Y11885929D01*
X2596641Y11880850D01*
X2607056Y11880850D01*
X2622550Y11885929D01*
X2632963Y11896344D01*
X2638043Y11911837D01*
X2638043Y11989815D01*
X2672334Y11968987D02*
G01*
X2682747Y11974321D01*
X2698495Y11989815D01*
X2698495Y11880850D01*
X2514600Y9856215D02*
G01*
X2514600Y9778237D01*
X2519679Y9762744D01*
X2530093Y9752329D01*
X2545841Y9747250D01*
X2556256Y9747250D01*
X2571750Y9752329D01*
X2582163Y9762744D01*
X2587243Y9778237D01*
X2587243Y9856215D01*
X2626868Y9830308D02*
G01*
X2626868Y9835387D01*
X2631947Y9845802D01*
X2637281Y9851136D01*
X2647695Y9856215D01*
X2668270Y9856215D01*
X2678684Y9851136D01*
X2684018Y9845802D01*
X2689097Y9835387D01*
X2689097Y9824974D01*
X2684018Y9814560D01*
X2673604Y9799065D01*
X2621534Y9747250D01*
X2694431Y9747250D01*
X5500115Y10668000D02*
G01*
X5422138Y10668000D01*
X5406643Y10662920D01*
X5396229Y10652505D01*
X5391150Y10636758D01*
X5391150Y10626344D01*
X5396229Y10610850D01*
X5406643Y10600436D01*
X5422138Y10595355D01*
X5500115Y10595355D01*
X5500115Y10550652D02*
G01*
X5500115Y10493502D01*
X5458459Y10524489D01*
X5458459Y10508995D01*
X5453379Y10498581D01*
X5448300Y10493502D01*
X5432552Y10488168D01*
X5422138Y10488168D01*
X5406643Y10493502D01*
X5396229Y10503915D01*
X5391150Y10519410D01*
X5391150Y10534904D01*
X5396229Y10550652D01*
X5401309Y10555731D01*
X5411724Y10561065D01*
D11*
X3845994Y12415837D02*
G01*
X3845994Y12320333D01*
X3845994Y12415837D02*
G01*
X3877744Y12415837D01*
X3891460Y12411265D01*
X3900604Y12402375D01*
X3905176Y12393231D01*
X3909748Y12379515D01*
X3909748Y12356909D01*
X3905176Y12343193D01*
X3900604Y12334049D01*
X3891460Y12324905D01*
X3877744Y12320333D01*
X3845994Y12320333D01*
X3939720Y12397803D02*
G01*
X3948610Y12402375D01*
X3962326Y12415837D01*
X3962326Y12320333D01*
X4001442Y12415837D02*
G01*
X4051480Y12415837D01*
X4024302Y12379515D01*
X4037764Y12379515D01*
X4046908Y12374943D01*
X4051480Y12370371D01*
X4056052Y12356909D01*
X4056052Y12347765D01*
X4051480Y12334049D01*
X4042336Y12324905D01*
X4028620Y12320333D01*
X4015158Y12320333D01*
X4001442Y12324905D01*
X3996870Y12329477D01*
X3992298Y12338621D01*
X3855133Y12161842D02*
G01*
X3905171Y12161842D01*
X3877739Y12125520D01*
X3891455Y12125520D01*
X3900599Y12120948D01*
X3905171Y12116376D01*
X3909743Y12102914D01*
X3909743Y12093770D01*
X3905171Y12080054D01*
X3896027Y12070910D01*
X3882311Y12066338D01*
X3868595Y12066338D01*
X3855133Y12070910D01*
X3850561Y12075482D01*
X3845989Y12084626D01*
X3939715Y12161842D02*
G01*
X3976037Y12066338D01*
X4012359Y12161842D02*
G01*
X3976037Y12066338D01*
X4051475Y12161842D02*
G01*
X4101513Y12161842D01*
X4074081Y12125520D01*
X4087797Y12125520D01*
X4096941Y12120948D01*
X4101513Y12116376D01*
X4106085Y12102914D01*
X4106085Y12093770D01*
X4101513Y12080054D01*
X4092369Y12070910D01*
X4078653Y12066338D01*
X4065191Y12066338D01*
X4051475Y12070910D01*
X4046903Y12075482D01*
X4042331Y12084626D01*
X3845989Y11907842D02*
G01*
X3845989Y11812338D01*
X3845989Y11907842D02*
G01*
X3886883Y11907842D01*
X3900599Y11903270D01*
X3905171Y11898698D01*
X3909743Y11889808D01*
X3909743Y11880664D01*
X3905171Y11871520D01*
X3900599Y11866948D01*
X3886883Y11862376D01*
X3845989Y11862376D01*
X3877739Y11862376D02*
G01*
X3909743Y11812338D01*
X3939715Y11907842D02*
G01*
X3939715Y11812338D01*
X3939715Y11907842D02*
G01*
X3998643Y11907842D01*
X3939715Y11862376D02*
G01*
X3976037Y11862376D01*
X3939715Y11812338D02*
G01*
X3998643Y11812338D01*
X4028615Y11907842D02*
G01*
X4028615Y11812338D01*
X4028615Y11907842D02*
G01*
X4087797Y11907842D01*
X4028615Y11862376D02*
G01*
X4065191Y11862376D01*
X3882313Y11653840D02*
G01*
X3845991Y11558336D01*
X3882313Y11653840D02*
G01*
X3918635Y11558336D01*
X3859707Y11590340D02*
G01*
X3905173Y11590340D01*
X3976039Y11653840D02*
G01*
X3962323Y11649268D01*
X3953179Y11635806D01*
X3948607Y11612946D01*
X3948607Y11599484D01*
X3953179Y11576624D01*
X3962323Y11562908D01*
X3976039Y11558336D01*
X3985183Y11558336D01*
X3998645Y11562908D01*
X4007789Y11576624D01*
X4012361Y11599484D01*
X4012361Y11612946D01*
X4007789Y11635806D01*
X3998645Y11649268D01*
X3985183Y11653840D01*
X3976039Y11653840D01*
X3882311Y11399842D02*
G01*
X3845989Y11304338D01*
X3882311Y11399842D02*
G01*
X3918633Y11304338D01*
X3859705Y11336342D02*
G01*
X3905171Y11336342D01*
X3948605Y11381808D02*
G01*
X3957749Y11386380D01*
X3971465Y11399842D01*
X3971465Y11304338D01*
X3882313Y11145840D02*
G01*
X3845991Y11050336D01*
X3882313Y11145840D02*
G01*
X3918635Y11050336D01*
X3859707Y11082340D02*
G01*
X3905173Y11082340D01*
X3953179Y11123234D02*
G01*
X3953179Y11127806D01*
X3957751Y11136696D01*
X3962323Y11141268D01*
X3971467Y11145840D01*
X3989501Y11145840D01*
X3998645Y11141268D01*
X4003217Y11136696D01*
X4007789Y11127806D01*
X4007789Y11118662D01*
X4003217Y11109518D01*
X3994073Y11095802D01*
X3948607Y11050336D01*
X4012361Y11050336D01*
X3882313Y10891840D02*
G01*
X3845991Y10796336D01*
X3882313Y10891840D02*
G01*
X3918635Y10796336D01*
X3859707Y10828340D02*
G01*
X3905173Y10828340D01*
X3957751Y10891840D02*
G01*
X4007789Y10891840D01*
X3980611Y10855518D01*
X3994073Y10855518D01*
X4003217Y10850946D01*
X4007789Y10846374D01*
X4012361Y10832912D01*
X4012361Y10823768D01*
X4007789Y10810052D01*
X3998645Y10800908D01*
X3985183Y10796336D01*
X3971467Y10796336D01*
X3957751Y10800908D01*
X3953179Y10805480D01*
X3948607Y10814624D01*
X3882316Y10637837D02*
G01*
X3845994Y10542333D01*
X3882316Y10637837D02*
G01*
X3918638Y10542333D01*
X3859710Y10574337D02*
G01*
X3905176Y10574337D01*
X3994076Y10637837D02*
G01*
X3948610Y10574337D01*
X4016936Y10574337D01*
X3994076Y10637837D02*
G01*
X3994076Y10542333D01*
X3882313Y10383840D02*
G01*
X3845991Y10288336D01*
X3882313Y10383840D02*
G01*
X3918635Y10288336D01*
X3859707Y10320340D02*
G01*
X3905173Y10320340D01*
X4003217Y10383840D02*
G01*
X3957751Y10383840D01*
X3953179Y10342946D01*
X3957751Y10347518D01*
X3971467Y10352090D01*
X3985183Y10352090D01*
X3998645Y10347518D01*
X4007789Y10338374D01*
X4012361Y10324912D01*
X4012361Y10315768D01*
X4007789Y10302052D01*
X3998645Y10292908D01*
X3985183Y10288336D01*
X3971467Y10288336D01*
X3957751Y10292908D01*
X3953179Y10297480D01*
X3948607Y10306624D01*
X3882316Y10129837D02*
G01*
X3845994Y10034333D01*
X3882316Y10129837D02*
G01*
X3918638Y10034333D01*
X3859710Y10066337D02*
G01*
X3905176Y10066337D01*
X4003220Y10116375D02*
G01*
X3998648Y10125265D01*
X3985186Y10129837D01*
X3976042Y10129837D01*
X3962326Y10125265D01*
X3953182Y10111803D01*
X3948610Y10088943D01*
X3948610Y10066337D01*
X3953182Y10048049D01*
X3962326Y10038905D01*
X3976042Y10034333D01*
X3980614Y10034333D01*
X3994076Y10038905D01*
X4003220Y10048049D01*
X4007792Y10061765D01*
X4007792Y10066337D01*
X4003220Y10079799D01*
X3994076Y10088943D01*
X3980614Y10093515D01*
X3976042Y10093515D01*
X3962326Y10088943D01*
X3953182Y10079799D01*
X3948610Y10066337D01*
X3882313Y9875840D02*
G01*
X3845991Y9780336D01*
X3882313Y9875840D02*
G01*
X3918635Y9780336D01*
X3859707Y9812340D02*
G01*
X3905173Y9812340D01*
X4012361Y9875840D02*
G01*
X3966895Y9780336D01*
X3948607Y9875840D02*
G01*
X4012361Y9875840D01*
X3900601Y9621840D02*
G01*
X3855135Y9621840D01*
X3850563Y9580946D01*
X3855135Y9585518D01*
X3868597Y9590090D01*
X3882313Y9590090D01*
X3896029Y9585518D01*
X3905173Y9576374D01*
X3909745Y9562912D01*
X3909745Y9553768D01*
X3905173Y9540052D01*
X3896029Y9530908D01*
X3882313Y9526336D01*
X3868597Y9526336D01*
X3855135Y9530908D01*
X3850563Y9535480D01*
X3845991Y9544624D01*
X3939717Y9621840D02*
G01*
X3976039Y9526336D01*
X4012361Y9621840D02*
G01*
X3976039Y9526336D01*
X3845989Y9367842D02*
G01*
X3845989Y9272338D01*
X3845989Y9367842D02*
G01*
X3886883Y9367842D01*
X3900599Y9363270D01*
X3905171Y9358698D01*
X3909743Y9349808D01*
X3909743Y9340664D01*
X3905171Y9331520D01*
X3900599Y9326948D01*
X3886883Y9322376D01*
X3845989Y9322376D01*
X3877739Y9322376D02*
G01*
X3909743Y9272338D01*
X4003215Y9354380D02*
G01*
X3994071Y9363270D01*
X3980609Y9367842D01*
X3962321Y9367842D01*
X3948605Y9363270D01*
X3939715Y9354380D01*
X3939715Y9345236D01*
X3944287Y9336092D01*
X3948605Y9331520D01*
X3957749Y9326948D01*
X3985181Y9317804D01*
X3994071Y9313486D01*
X3998643Y9308914D01*
X4003215Y9299770D01*
X4003215Y9286054D01*
X3994071Y9276910D01*
X3980609Y9272338D01*
X3962321Y9272338D01*
X3948605Y9276910D01*
X3939715Y9286054D01*
X4065191Y9367842D02*
G01*
X4065191Y9272338D01*
X4033187Y9367842D02*
G01*
X4096941Y9367842D01*
X3914063Y9091234D02*
G01*
X3909745Y9100378D01*
X3900601Y9109268D01*
X3891457Y9113840D01*
X3873169Y9113840D01*
X3864279Y9109268D01*
X3855135Y9100378D01*
X3850563Y9091234D01*
X3845991Y9077518D01*
X3845991Y9054912D01*
X3850563Y9041196D01*
X3855135Y9032052D01*
X3864279Y9022908D01*
X3873169Y9018336D01*
X3891457Y9018336D01*
X3900601Y9022908D01*
X3909745Y9032052D01*
X3914063Y9041196D01*
X3914063Y9054912D01*
X3891457Y9054912D02*
G01*
X3914063Y9054912D01*
X3944289Y9113840D02*
G01*
X3944289Y9018336D01*
X3944289Y9113840D02*
G01*
X4007789Y9018336D01*
X4007789Y9113840D02*
G01*
X4007789Y9018336D01*
X4037761Y9113840D02*
G01*
X4037761Y9018336D01*
X4037761Y9113840D02*
G01*
X4069511Y9113840D01*
X4083227Y9109268D01*
X4092371Y9100378D01*
X4096943Y9091234D01*
X4101515Y9077518D01*
X4101515Y9054912D01*
X4096943Y9041196D01*
X4092371Y9032052D01*
X4083227Y9022908D01*
X4069511Y9018336D01*
X4037761Y9018336D01*
X3845994Y8859837D02*
G01*
X3882316Y8764333D01*
X3918638Y8859837D02*
G01*
X3882316Y8764333D01*
X3948610Y8859837D02*
G01*
X3948610Y8764333D01*
X3978836Y8859837D02*
G01*
X3978836Y8764333D01*
X3978836Y8859837D02*
G01*
X4042336Y8764333D01*
X4042336Y8859837D02*
G01*
X4042336Y8764333D01*
X4834892Y12417841D02*
G01*
X4834892Y12322337D01*
X4834892Y12417841D02*
G01*
X4866642Y12417841D01*
X4880358Y12413269D01*
X4889502Y12404379D01*
X4894074Y12395235D01*
X4898646Y12381519D01*
X4898646Y12358913D01*
X4894074Y12345197D01*
X4889502Y12336053D01*
X4880358Y12326909D01*
X4866642Y12322337D01*
X4834892Y12322337D01*
X4928618Y12399807D02*
G01*
X4937508Y12404379D01*
X4951224Y12417841D01*
X4951224Y12322337D01*
X4985768Y12395235D02*
G01*
X4985768Y12399807D01*
X4990340Y12408697D01*
X4994912Y12413269D01*
X5004056Y12417841D01*
X5022090Y12417841D01*
X5031234Y12413269D01*
X5035806Y12408697D01*
X5040378Y12399807D01*
X5040378Y12390663D01*
X5035806Y12381519D01*
X5026662Y12367803D01*
X4981196Y12322337D01*
X5044950Y12322337D01*
X4875786Y12163844D02*
G01*
X4875786Y12068340D01*
X4875786Y12163844D02*
G01*
X4907536Y12163844D01*
X4921252Y12159272D01*
X4930396Y12150382D01*
X4934968Y12141238D01*
X4939540Y12127522D01*
X4939540Y12104916D01*
X4934968Y12091200D01*
X4930396Y12082056D01*
X4921252Y12072912D01*
X4907536Y12068340D01*
X4875786Y12068340D01*
X4969512Y12145810D02*
G01*
X4978402Y12150382D01*
X4992118Y12163844D01*
X4992118Y12068340D01*
X5022090Y12145810D02*
G01*
X5031234Y12150382D01*
X5044950Y12163844D01*
X5044950Y12068340D01*
X4834892Y11909841D02*
G01*
X4834892Y11814337D01*
X4834892Y11909841D02*
G01*
X4866642Y11909841D01*
X4880358Y11905269D01*
X4889502Y11896379D01*
X4894074Y11887235D01*
X4898646Y11873519D01*
X4898646Y11850913D01*
X4894074Y11837197D01*
X4889502Y11828053D01*
X4880358Y11818909D01*
X4866642Y11814337D01*
X4834892Y11814337D01*
X4928618Y11891807D02*
G01*
X4937508Y11896379D01*
X4951224Y11909841D01*
X4951224Y11814337D01*
X5008628Y11909841D02*
G01*
X4994912Y11905269D01*
X4985768Y11891807D01*
X4981196Y11868947D01*
X4981196Y11855485D01*
X4985768Y11832625D01*
X4994912Y11818909D01*
X5008628Y11814337D01*
X5017518Y11814337D01*
X5031234Y11818909D01*
X5040378Y11832625D01*
X5044950Y11855485D01*
X5044950Y11868947D01*
X5040378Y11891807D01*
X5031234Y11905269D01*
X5017518Y11909841D01*
X5008628Y11909841D01*
X4892296Y11655841D02*
G01*
X4892296Y11560337D01*
X4892296Y11655841D02*
G01*
X4924046Y11655841D01*
X4937762Y11651269D01*
X4946906Y11642379D01*
X4951478Y11633235D01*
X4956050Y11619519D01*
X4956050Y11596913D01*
X4951478Y11583197D01*
X4946906Y11574053D01*
X4937762Y11564909D01*
X4924046Y11560337D01*
X4892296Y11560337D01*
X5044950Y11624091D02*
G01*
X5040378Y11610375D01*
X5031488Y11601485D01*
X5017772Y11596913D01*
X5013200Y11596913D01*
X4999484Y11601485D01*
X4990594Y11610375D01*
X4986022Y11624091D01*
X4986022Y11628663D01*
X4990594Y11642379D01*
X4999484Y11651269D01*
X5013200Y11655841D01*
X5017772Y11655841D01*
X5031488Y11651269D01*
X5040378Y11642379D01*
X5044950Y11624091D01*
X5044950Y11601485D01*
X5040378Y11578625D01*
X5031488Y11564909D01*
X5017772Y11560337D01*
X5008628Y11560337D01*
X4994912Y11564909D01*
X4990594Y11574053D01*
X4887724Y11401844D02*
G01*
X4887724Y11306340D01*
X4887724Y11401844D02*
G01*
X4919474Y11401844D01*
X4933190Y11397272D01*
X4942334Y11388382D01*
X4946906Y11379238D01*
X4951478Y11365522D01*
X4951478Y11342916D01*
X4946906Y11329200D01*
X4942334Y11320056D01*
X4933190Y11310912D01*
X4919474Y11306340D01*
X4887724Y11306340D01*
X5004056Y11401844D02*
G01*
X4990340Y11397272D01*
X4986022Y11388382D01*
X4986022Y11379238D01*
X4990340Y11370094D01*
X4999484Y11365522D01*
X5017772Y11360950D01*
X5031234Y11356378D01*
X5040378Y11347488D01*
X5044950Y11338344D01*
X5044950Y11324628D01*
X5040378Y11315484D01*
X5035806Y11310912D01*
X5022344Y11306340D01*
X5004056Y11306340D01*
X4990340Y11310912D01*
X4986022Y11315484D01*
X4981450Y11324628D01*
X4981450Y11338344D01*
X4986022Y11347488D01*
X4994912Y11356378D01*
X5008628Y11360950D01*
X5026916Y11365522D01*
X5035806Y11370094D01*
X5040378Y11379238D01*
X5040378Y11388382D01*
X5035806Y11397272D01*
X5022344Y11401844D01*
X5004056Y11401844D01*
X4887724Y11147841D02*
G01*
X4887724Y11052337D01*
X4887724Y11147841D02*
G01*
X4919474Y11147841D01*
X4933190Y11143269D01*
X4942334Y11134379D01*
X4946906Y11125235D01*
X4951478Y11111519D01*
X4951478Y11088913D01*
X4946906Y11075197D01*
X4942334Y11066053D01*
X4933190Y11056909D01*
X4919474Y11052337D01*
X4887724Y11052337D01*
X5044950Y11147841D02*
G01*
X4999484Y11052337D01*
X4981450Y11147841D02*
G01*
X5044950Y11147841D01*
X4892296Y10893841D02*
G01*
X4892296Y10798337D01*
X4892296Y10893841D02*
G01*
X4924046Y10893841D01*
X4937762Y10889269D01*
X4946906Y10880379D01*
X4951478Y10871235D01*
X4956050Y10857519D01*
X4956050Y10834913D01*
X4951478Y10821197D01*
X4946906Y10812053D01*
X4937762Y10802909D01*
X4924046Y10798337D01*
X4892296Y10798337D01*
X5040378Y10880379D02*
G01*
X5035806Y10889269D01*
X5022344Y10893841D01*
X5013200Y10893841D01*
X4999484Y10889269D01*
X4990594Y10875807D01*
X4986022Y10852947D01*
X4986022Y10830341D01*
X4990594Y10812053D01*
X4999484Y10802909D01*
X5013200Y10798337D01*
X5017772Y10798337D01*
X5031488Y10802909D01*
X5040378Y10812053D01*
X5044950Y10825769D01*
X5044950Y10830341D01*
X5040378Y10843803D01*
X5031488Y10852947D01*
X5017772Y10857519D01*
X5013200Y10857519D01*
X4999484Y10852947D01*
X4990594Y10843803D01*
X4986022Y10830341D01*
X4887724Y10639844D02*
G01*
X4887724Y10544340D01*
X4887724Y10639844D02*
G01*
X4919474Y10639844D01*
X4933190Y10635272D01*
X4942334Y10626382D01*
X4946906Y10617238D01*
X4951478Y10603522D01*
X4951478Y10580916D01*
X4946906Y10567200D01*
X4942334Y10558056D01*
X4933190Y10548912D01*
X4919474Y10544340D01*
X4887724Y10544340D01*
X5035806Y10639844D02*
G01*
X4990340Y10639844D01*
X4986022Y10598950D01*
X4990340Y10603522D01*
X5004056Y10608094D01*
X5017772Y10608094D01*
X5031234Y10603522D01*
X5040378Y10594378D01*
X5044950Y10580916D01*
X5044950Y10571772D01*
X5040378Y10558056D01*
X5031234Y10548912D01*
X5017772Y10544340D01*
X5004056Y10544340D01*
X4990340Y10548912D01*
X4986022Y10553484D01*
X4981450Y10562628D01*
X4883152Y10385841D02*
G01*
X4883152Y10290337D01*
X4883152Y10385841D02*
G01*
X4914902Y10385841D01*
X4928618Y10381269D01*
X4937762Y10372379D01*
X4942334Y10363235D01*
X4946906Y10349519D01*
X4946906Y10326913D01*
X4942334Y10313197D01*
X4937762Y10304053D01*
X4928618Y10294909D01*
X4914902Y10290337D01*
X4883152Y10290337D01*
X5022344Y10385841D02*
G01*
X4976878Y10322341D01*
X5044950Y10322341D01*
X5022344Y10385841D02*
G01*
X5022344Y10290337D01*
X4887724Y10131841D02*
G01*
X4887724Y10036337D01*
X4887724Y10131841D02*
G01*
X4919474Y10131841D01*
X4933190Y10127269D01*
X4942334Y10118379D01*
X4946906Y10109235D01*
X4951478Y10095519D01*
X4951478Y10072913D01*
X4946906Y10059197D01*
X4942334Y10050053D01*
X4933190Y10040909D01*
X4919474Y10036337D01*
X4887724Y10036337D01*
X4990340Y10131841D02*
G01*
X5040378Y10131841D01*
X5013200Y10095519D01*
X5026916Y10095519D01*
X5035806Y10090947D01*
X5040378Y10086375D01*
X5044950Y10072913D01*
X5044950Y10063769D01*
X5040378Y10050053D01*
X5031234Y10040909D01*
X5017772Y10036337D01*
X5004056Y10036337D01*
X4990340Y10040909D01*
X4986022Y10045481D01*
X4981450Y10054625D01*
X4887724Y9877844D02*
G01*
X4887724Y9782340D01*
X4887724Y9877844D02*
G01*
X4919474Y9877844D01*
X4933190Y9873272D01*
X4942334Y9864382D01*
X4946906Y9855238D01*
X4951478Y9841522D01*
X4951478Y9818916D01*
X4946906Y9805200D01*
X4942334Y9796056D01*
X4933190Y9786912D01*
X4919474Y9782340D01*
X4887724Y9782340D01*
X4986022Y9855238D02*
G01*
X4986022Y9859810D01*
X4990340Y9868700D01*
X4994912Y9873272D01*
X5004056Y9877844D01*
X5022344Y9877844D01*
X5031234Y9873272D01*
X5035806Y9868700D01*
X5040378Y9859810D01*
X5040378Y9850666D01*
X5035806Y9841522D01*
X5026916Y9827806D01*
X4981450Y9782340D01*
X5044950Y9782340D01*
X4857498Y9601235D02*
G01*
X4853180Y9610379D01*
X4844036Y9619269D01*
X4834892Y9623841D01*
X4816604Y9623841D01*
X4807714Y9619269D01*
X4798570Y9610379D01*
X4793998Y9601235D01*
X4789426Y9587519D01*
X4789426Y9564913D01*
X4793998Y9551197D01*
X4798570Y9542053D01*
X4807714Y9532909D01*
X4816604Y9528337D01*
X4834892Y9528337D01*
X4844036Y9532909D01*
X4853180Y9542053D01*
X4857498Y9551197D01*
X4857498Y9564913D01*
X4834892Y9564913D02*
G01*
X4857498Y9564913D01*
X4887724Y9623841D02*
G01*
X4887724Y9528337D01*
X4887724Y9623841D02*
G01*
X4951224Y9528337D01*
X4951224Y9623841D02*
G01*
X4951224Y9528337D01*
X4981196Y9623841D02*
G01*
X4981196Y9528337D01*
X4981196Y9623841D02*
G01*
X5012946Y9623841D01*
X5026662Y9619269D01*
X5035806Y9610379D01*
X5040378Y9601235D01*
X5044950Y9587519D01*
X5044950Y9564913D01*
X5040378Y9551197D01*
X5035806Y9542053D01*
X5026662Y9532909D01*
X5012946Y9528337D01*
X4981196Y9528337D01*
X4793998Y9369841D02*
G01*
X4793998Y9274337D01*
X4793998Y9369841D02*
G01*
X4834892Y9369841D01*
X4848608Y9365269D01*
X4853180Y9360697D01*
X4857752Y9351807D01*
X4857752Y9342663D01*
X4853180Y9333519D01*
X4848608Y9328947D01*
X4834892Y9324375D01*
X4793998Y9324375D01*
X4825748Y9324375D02*
G01*
X4857752Y9274337D01*
X4951224Y9356379D02*
G01*
X4942080Y9365269D01*
X4928618Y9369841D01*
X4910330Y9369841D01*
X4896614Y9365269D01*
X4887724Y9356379D01*
X4887724Y9347235D01*
X4892296Y9338091D01*
X4896614Y9333519D01*
X4905758Y9328947D01*
X4933190Y9319803D01*
X4942080Y9315485D01*
X4946652Y9310913D01*
X4951224Y9301769D01*
X4951224Y9288053D01*
X4942080Y9278909D01*
X4928618Y9274337D01*
X4910330Y9274337D01*
X4896614Y9278909D01*
X4887724Y9288053D01*
X5013200Y9369841D02*
G01*
X5013200Y9274337D01*
X4981196Y9369841D02*
G01*
X5044950Y9369841D01*
X4793998Y9115844D02*
G01*
X4793998Y9020340D01*
X4793998Y9115844D02*
G01*
X4834892Y9115844D01*
X4848608Y9111272D01*
X4853180Y9106700D01*
X4857752Y9097810D01*
X4857752Y9088666D01*
X4853180Y9079522D01*
X4848608Y9074950D01*
X4834892Y9070378D01*
X4793998Y9070378D01*
X4825748Y9070378D02*
G01*
X4857752Y9020340D01*
X4887724Y9115844D02*
G01*
X4951224Y9020340D01*
X4951224Y9115844D02*
G01*
X4887724Y9020340D01*
X4981196Y9115844D02*
G01*
X4981196Y9020340D01*
X4981196Y9115844D02*
G01*
X5013200Y9115844D01*
X5026662Y9111272D01*
X5035806Y9102382D01*
X5040378Y9093238D01*
X5044950Y9079522D01*
X5044950Y9056916D01*
X5040378Y9043200D01*
X5035806Y9034056D01*
X5026662Y9024912D01*
X5013200Y9020340D01*
X4981196Y9020340D01*
X4825748Y8861841D02*
G01*
X4825748Y8766337D01*
X4793998Y8861841D02*
G01*
X4857752Y8861841D01*
X4887724Y8861841D02*
G01*
X4951224Y8766337D01*
X4951224Y8861841D02*
G01*
X4887724Y8766337D01*
X4981196Y8861841D02*
G01*
X4981196Y8766337D01*
X4981196Y8861841D02*
G01*
X5013200Y8861841D01*
X5026662Y8857269D01*
X5035806Y8848379D01*
X5040378Y8839235D01*
X5044950Y8825519D01*
X5044950Y8802913D01*
X5040378Y8789197D01*
X5035806Y8780053D01*
X5026662Y8770909D01*
X5013200Y8766337D01*
X4981196Y8766337D01*
D10*
X3091139Y11988619D02*
G01*
X3091139Y11840121D01*
X3309660Y11840121D02*
G01*
X3309660Y11988619D01*
X3294420Y12003859D02*
G01*
X3106379Y12003859D01*
X3091139Y11506380D02*
G01*
X3091139Y11654878D01*
X3309660Y11654878D02*
G01*
X3309660Y11506380D01*
X3294420Y11491140D02*
G01*
X3106379Y11491140D01*
X3078439Y9855019D02*
G01*
X3078439Y9706521D01*
X3296960Y9706521D02*
G01*
X3296960Y9855019D01*
X3281720Y9870259D02*
G01*
X3093679Y9870259D01*
X3078439Y9372780D02*
G01*
X3078439Y9521278D01*
X3296960Y9521278D02*
G01*
X3296960Y9372780D01*
X3281720Y9357540D02*
G01*
X3093679Y9357540D01*
X1817060Y11478135D02*
G01*
X1817060Y11514980D01*
X1738939Y11514980D02*
G01*
X1738939Y11478135D01*
X1754179Y11462895D02*
G01*
X1801820Y11462895D01*
X1817060Y11585064D02*
G01*
X1817060Y11548219D01*
X1738939Y11548219D02*
G01*
X1738939Y11585064D01*
X1754179Y11600304D02*
G01*
X1801820Y11600304D01*
X1842460Y9369935D02*
G01*
X1842460Y9406780D01*
X1764339Y9406780D02*
G01*
X1764339Y9369935D01*
X1779579Y9354695D02*
G01*
X1827220Y9354695D01*
X1842460Y9476864D02*
G01*
X1842460Y9440019D01*
X1764339Y9440019D02*
G01*
X1764339Y9476864D01*
X1779579Y9492104D02*
G01*
X1827220Y9492104D01*
D12*
X7035800Y12484100D02*
G01*
X7226300Y12484100D01*
X7226300Y12738100D01*
X5702300Y12738100D01*
X5702300Y12484100D01*
D13*
X5702300Y12484100D02*
G01*
X7035800Y12484100D01*
D10*
X1559321Y11900839D02*
G01*
X1638330Y11900839D01*
X1653570Y11916079D01*
X1653570Y11985320D01*
X1638330Y12000560D01*
X1559321Y12000560D01*
X1514078Y11900839D02*
G01*
X1435069Y11900839D01*
X1419829Y11916079D01*
X1419829Y11985320D01*
X1435069Y12000560D01*
X1514078Y12000560D01*
X2054621Y11900839D02*
G01*
X2133630Y11900839D01*
X2148870Y11916079D01*
X2148870Y11985320D01*
X2133630Y12000560D01*
X2054621Y12000560D01*
X2009378Y11900839D02*
G01*
X1930369Y11900839D01*
X1915129Y11916079D01*
X1915129Y11985320D01*
X1930369Y12000560D01*
X2009378Y12000560D01*
X1572021Y9818039D02*
G01*
X1651030Y9818039D01*
X1666270Y9833279D01*
X1666270Y9902520D01*
X1651030Y9917760D01*
X1572021Y9917760D01*
X1526778Y9818039D02*
G01*
X1447769Y9818039D01*
X1432529Y9833279D01*
X1432529Y9902520D01*
X1447769Y9917760D01*
X1526778Y9917760D01*
X2054621Y9818039D02*
G01*
X2133630Y9818039D01*
X2148870Y9833279D01*
X2148870Y9902520D01*
X2133630Y9917760D01*
X2054621Y9917760D01*
X2009378Y9818039D02*
G01*
X1930369Y9818039D01*
X1915129Y9833279D01*
X1915129Y9902520D01*
X1930369Y9917760D01*
X2009378Y9917760D01*
D14*
X684999Y11285199D02*
G01*
X684999Y12235200D01*
X-106258Y12027700D02*
G01*
X-107198Y11492699D01*
X-109644Y11492699D02*
G01*
X-177378Y12027700D01*
X-177378Y12027700D02*
G01*
X-178318Y11492699D01*
X-278000Y11492699D02*
G01*
X481799Y11492699D01*
X-38524Y11492699D02*
G01*
X-106258Y12027700D01*
X31701Y12027700D02*
G01*
X30761Y11492699D01*
X30055Y11492699D02*
G01*
X-37678Y12027700D01*
X-37678Y12027700D02*
G01*
X-38618Y11492699D01*
X99435Y11492699D02*
G01*
X31701Y12027700D01*
X169049Y12027700D02*
G01*
X168109Y11492699D01*
X167170Y11492699D02*
G01*
X99435Y12027700D01*
X99435Y12027700D02*
G01*
X98496Y11492699D01*
X236783Y11492699D02*
G01*
X169049Y12027700D01*
X238853Y11492699D02*
G01*
X238853Y12027700D01*
X-278000Y12027700D02*
G01*
X-278000Y11492699D01*
X-278000Y12027700D02*
G01*
X481799Y12027700D01*
X684999Y12235200D02*
G01*
X481799Y12235200D01*
X481799Y11285199D01*
X684999Y11285199D02*
G01*
X481799Y11285199D01*
X684999Y11763352D02*
G01*
X485000Y11763352D01*
X684999Y9176999D02*
G01*
X684999Y10127000D01*
X-106258Y9919500D02*
G01*
X-107198Y9384499D01*
X-109644Y9384499D02*
G01*
X-177378Y9919500D01*
X-177378Y9919500D02*
G01*
X-178318Y9384499D01*
X-278000Y9384499D02*
G01*
X481799Y9384499D01*
X-38524Y9384499D02*
G01*
X-106258Y9919500D01*
X31701Y9919500D02*
G01*
X30761Y9384499D01*
X30055Y9384499D02*
G01*
X-37678Y9919500D01*
X-37678Y9919500D02*
G01*
X-38618Y9384499D01*
X99435Y9384499D02*
G01*
X31701Y9919500D01*
X169049Y9919500D02*
G01*
X168109Y9384499D01*
X167170Y9384499D02*
G01*
X99435Y9919500D01*
X99435Y9919500D02*
G01*
X98496Y9384499D01*
X236783Y9384499D02*
G01*
X169049Y9919500D01*
X238853Y9384499D02*
G01*
X238853Y9919500D01*
X-278000Y9919500D02*
G01*
X-278000Y9384499D01*
X-278000Y9919500D02*
G01*
X481799Y9919500D01*
X684999Y10127000D02*
G01*
X481799Y10127000D01*
X481799Y9176999D01*
X684999Y9176999D02*
G01*
X481799Y9176999D01*
X684999Y9655152D02*
G01*
X485000Y9655152D01*
X2495341Y11829783D02*
G01*
X2495341Y11844799D01*
X2495341Y11639801D02*
G01*
X2495341Y11624800D01*
X2495400Y11624800D02*
G01*
X2591236Y11624800D01*
X2495400Y11844799D02*
G01*
X2588407Y11844799D01*
X2495341Y11799186D02*
G01*
X2495341Y11829783D01*
X2495341Y11639801D02*
G01*
X2495341Y11670408D01*
X2444541Y9696183D02*
G01*
X2444541Y9711199D01*
X2444541Y9506201D02*
G01*
X2444541Y9491200D01*
X2444600Y9491200D02*
G01*
X2540436Y9491200D01*
X2444600Y9711199D02*
G01*
X2537607Y9711199D01*
X2444541Y9665586D02*
G01*
X2444541Y9696183D01*
X2444541Y9506201D02*
G01*
X2444541Y9536808D01*
D15*
X3556060Y10274340D02*
G01*
X3619560Y10210840D01*
X3556060Y10147340D01*
X3810048Y12433325D02*
G01*
X3746548Y12496825D01*
X3619548Y12496825D01*
X3556048Y12433325D01*
X3810048Y12179325D02*
G01*
X3746548Y12242825D01*
X3810048Y12306325D01*
X3810048Y11925325D02*
G01*
X3746548Y11988825D01*
X3810048Y12052325D01*
X3810048Y11671371D02*
G01*
X3746548Y11734848D01*
X3810048Y11798348D01*
X3810048Y11417376D02*
G01*
X3746548Y11480876D01*
X3810048Y11544376D01*
X3810048Y11163376D02*
G01*
X3746548Y11226876D01*
X3810048Y11290376D01*
X3810048Y10909376D02*
G01*
X3746548Y10972876D01*
X3810048Y11036376D01*
X3810048Y10655376D02*
G01*
X3746548Y10718876D01*
X3810048Y10782376D01*
X3810048Y10401376D02*
G01*
X3746548Y10464876D01*
X3810048Y10528376D01*
X3810048Y10147376D02*
G01*
X3746548Y10210876D01*
X3810048Y10274376D01*
X3810048Y9893376D02*
G01*
X3746548Y9956876D01*
X3810048Y10020376D01*
X3810048Y9639376D02*
G01*
X3746548Y9702876D01*
X3810048Y9766376D01*
X3810048Y9385348D02*
G01*
X3746548Y9448871D01*
X3810048Y9512376D01*
X3810048Y9131340D02*
G01*
X3746548Y9194840D01*
X3810048Y9258340D01*
X3810048Y8877340D02*
G01*
X3746548Y8940840D01*
X3810048Y9004340D01*
X3556048Y8750340D02*
G01*
X3619548Y8686840D01*
X3746548Y8686840D01*
X3810048Y8750340D01*
X3556048Y9004340D02*
G01*
X3619548Y8940840D01*
X3556048Y8877340D01*
X3556048Y9258340D02*
G01*
X3619548Y9194840D01*
X3556048Y9131340D01*
X3556048Y9512376D02*
G01*
X3619548Y9448871D01*
X3556048Y9385348D01*
X3556048Y11798348D02*
G01*
X3619548Y11734848D01*
X3556048Y11671371D01*
X3556048Y12306325D02*
G01*
X3619548Y12242825D01*
X3556048Y12179325D01*
X3556048Y12052325D02*
G01*
X3619548Y11988825D01*
X3556048Y11925325D01*
X3556048Y11544376D02*
G01*
X3619548Y11480876D01*
X3556048Y11417376D01*
X3556048Y11290376D02*
G01*
X3619548Y11226876D01*
X3556048Y11163376D01*
X3556048Y11036376D02*
G01*
X3619548Y10972876D01*
X3556048Y10909376D01*
X3556048Y10782376D02*
G01*
X3619548Y10718876D01*
X3556048Y10655376D01*
X3556048Y10528376D02*
G01*
X3619548Y10464876D01*
X3556048Y10401376D01*
X3556048Y10020376D02*
G01*
X3619548Y9956876D01*
X3556048Y9893376D01*
X3556048Y9766376D02*
G01*
X3619548Y9702876D01*
X3556048Y9639376D01*
X3556048Y9512376D02*
G01*
X3619548Y9448871D01*
X3556048Y9385348D01*
X3556048Y9258340D01*
X3619548Y9194840D01*
X3556048Y9131340D01*
X3556048Y9004340D01*
X3619548Y8940840D01*
X3556048Y8877340D01*
X3556048Y8750340D01*
X3619548Y8686840D01*
X3746548Y8686840D01*
X3810048Y8750340D01*
X3810048Y8877340D01*
X3746548Y8940840D01*
X3810048Y9004340D01*
X3810048Y9131340D01*
X3746548Y9194840D01*
X3810048Y9258340D01*
X3810048Y9385348D01*
X3746548Y9448871D01*
X3810048Y9512376D01*
X3810048Y9639376D01*
X3746548Y9702876D01*
X3810048Y9766376D01*
X3810048Y9893376D01*
X3746548Y9956876D01*
X3810048Y10020376D01*
X3810048Y10147376D01*
X3746548Y10210876D01*
X3810048Y10274376D01*
X3810048Y10401376D01*
X3746548Y10464876D01*
X3810048Y10528376D01*
X3810048Y10655376D01*
X3746548Y10718876D01*
X3810048Y10782376D01*
X3810048Y10909376D01*
X3746548Y10972876D01*
X3810048Y11036376D01*
X3810048Y11163376D01*
X3746548Y11226876D01*
X3810048Y11290376D01*
X3810048Y11417376D01*
X3746548Y11480876D01*
X3810048Y11544376D01*
X3810048Y11671371D01*
X3746548Y11734848D01*
X3810048Y11798348D01*
X3810048Y11925325D01*
X3746548Y11988825D01*
X3810048Y12052325D01*
X3810048Y12179325D01*
X3746548Y12242825D01*
X3810048Y12306325D01*
X3810048Y12433325D01*
X3746548Y12496825D01*
X3619548Y12496825D01*
X3556048Y12433325D01*
X5333956Y10909274D02*
G01*
X5270456Y10972774D01*
X5333956Y11036274D01*
X5333966Y11671233D02*
G01*
X5270466Y11734736D01*
X5333966Y11798261D01*
X5333966Y11925274D01*
X5270466Y11988774D01*
X5333966Y12052274D01*
X5333966Y12179274D01*
X5270466Y12242774D01*
X5333966Y12306274D01*
X5333966Y12433274D01*
X5270466Y12496774D01*
X5143466Y12496774D01*
X5079966Y12433274D01*
X5079966Y12306274D01*
X5143466Y12242774D01*
X5079966Y12179274D01*
X5079966Y12052274D01*
X5143466Y11988774D01*
X5079966Y11925274D01*
X5079966Y11798261D01*
X5143466Y11734736D01*
X5079966Y11671233D01*
X5079966Y11544233D01*
X5143466Y11480733D01*
X5079966Y11417233D01*
X5079966Y11290233D01*
X5143466Y11226733D01*
X5079966Y11163233D01*
X5079966Y11036233D01*
X5143466Y10972733D01*
X5079966Y10909233D01*
X5079966Y10782233D01*
X5143466Y10718733D01*
X5079966Y10655233D01*
X5079966Y10528233D01*
X5143466Y10464733D01*
X5079966Y10401233D01*
X5079966Y10274233D01*
X5143466Y10210733D01*
X5079966Y10147233D01*
X5079966Y10020233D01*
X5143466Y9956733D01*
X5079966Y9893233D01*
X5079966Y9766233D01*
X5143466Y9702733D01*
X5079966Y9639233D01*
X5079966Y9512239D01*
X5143466Y9448761D01*
X5079966Y9385261D01*
X5079966Y9258284D01*
X5143466Y9194784D01*
X5079966Y9131284D01*
X5079966Y9004284D01*
X5143466Y8940784D01*
X5079966Y8877284D01*
X5079966Y8750284D01*
X5143466Y8686784D01*
X5270466Y8686784D01*
X5333966Y8750284D01*
X5333966Y9385261D02*
G01*
X5270466Y9448761D01*
X5333966Y9512239D01*
X5333966Y8877284D02*
G01*
X5270466Y8940784D01*
X5333966Y9004284D01*
X5333966Y9131284D02*
G01*
X5270466Y9194784D01*
X5333966Y9258284D01*
X5333966Y9639233D02*
G01*
X5270466Y9702733D01*
X5333966Y9766233D01*
X5333966Y9893233D02*
G01*
X5270466Y9956733D01*
X5333966Y10020233D01*
X5333966Y10147233D02*
G01*
X5270466Y10210733D01*
X5333966Y10274233D01*
X5333966Y10401233D02*
G01*
X5270466Y10464733D01*
X5333966Y10528233D01*
X5333966Y10655233D02*
G01*
X5270466Y10718733D01*
X5333966Y10782233D01*
X5333966Y11163233D02*
G01*
X5270466Y11226733D01*
X5333966Y11290233D01*
X5333966Y11417233D02*
G01*
X5270466Y11480733D01*
X5333966Y11544233D01*
X4724400Y12362179D02*
G01*
X4699010Y12362179D01*
X4724400Y12750800D02*
G01*
X4724400Y12903200D01*
X4165600Y12903200D01*
X4165600Y12362179D01*
X4186504Y12362179D01*
X4724400Y12750800D02*
G01*
X4724400Y12362179D01*
X4699010Y12362179D02*
G01*
X4191000Y12362179D01*
D10*
X5341617Y12758420D02*
G01*
X5341617Y8425187D01*
X3548379Y8425187D01*
X3548379Y12758420D01*
X5341617Y12758420D01*
G75*
G01*
X3309661Y11988620D02*
G03*
X3294421Y12003860I-15240J0D01*
G75*
G01*
X3106379Y12003860D02*
G03*
X3091139Y11988620I0J-15240D01*
G75*
G01*
X3309661Y11506380D02*
G02*
X3294421Y11491140I-15240J0D01*
G75*
G01*
X3106379Y11491140D02*
G02*
X3091139Y11506380I0J15240D01*
G75*
G01*
X3296961Y9855020D02*
G03*
X3281721Y9870260I-15240J0D01*
G75*
G01*
X3093679Y9870260D02*
G03*
X3078439Y9855020I0J-15240D01*
G75*
G01*
X3296961Y9372780D02*
G02*
X3281721Y9357540I-15240J0D01*
G75*
G01*
X3093679Y9357540D02*
G02*
X3078439Y9372780I0J15240D01*
G75*
G01*
X1738940Y11478136D02*
G03*
X1754180Y11462896I15240J0D01*
G75*
G01*
X1801820Y11462896D02*
G03*
X1817060Y11478136I0J15240D01*
G75*
G01*
X1738940Y11585064D02*
G02*
X1754180Y11600304I15240J0D01*
G75*
G01*
X1801820Y11600304D02*
G02*
X1817060Y11585064I0J-15240D01*
G75*
G01*
X1764340Y9369936D02*
G03*
X1779580Y9354696I15240J0D01*
G75*
G01*
X1827220Y9354696D02*
G03*
X1842460Y9369936I0J15240D01*
G75*
G01*
X1764340Y9476864D02*
G02*
X1779580Y9492104I15240J0D01*
G75*
G01*
X1827220Y9492104D02*
G02*
X1842460Y9476864I0J-15240D01*
D16*
G75*
G01*
X2665400Y11604800D02*
G03*
X2665654Y11604800I127J-12445D01*
G75*
G01*
X2614600Y9471200D02*
G03*
X2614854Y9471200I127J-12445D01*
M02*
