G04 Layer: BottomSolderMaskLayer*
G04 EasyEDA v6.5.44, 2024-08-27 10:33:55*
G04 3fde5a6329554247a190ecd3801b01c9,e183ea938b1e48739b2e3e039e877233,10*
G04 Gerber Generator version 0.2*
G04 Scale: 100 percent, Rotated: No, Reflected: No *
G04 Dimensions in millimeters *
G04 leading zeros omitted , absolute positions ,4 integer and 5 decimal *
%FSLAX45Y45*%
%MOMM*%

%AMMACRO1*4,1,8,-0.8085,-0.8382,-0.8382,-0.8082,-0.8382,0.8085,-0.8085,0.8382,0.8082,0.8382,0.8382,0.8085,0.8382,-0.8082,0.8082,-0.8382,-0.8085,-0.8382,0*%
%AMMACRO2*4,1,8,-2.5211,-0.7008,-2.5508,-0.6708,-2.5508,0.6711,-2.5211,0.7008,2.5208,0.7008,2.5508,0.6711,2.5508,-0.6708,2.5208,-0.7008,-2.5211,-0.7008,0*%
%AMMACRO3*4,1,8,-0.8212,-0.8509,-0.8509,-0.8209,-0.8509,0.8212,-0.8212,0.8509,0.8209,0.8509,0.8509,0.8212,0.8509,-0.8209,0.8209,-0.8509,-0.8212,-0.8509,0*%
%ADD10C,1.6764*%
%ADD11MACRO1*%
%ADD12MACRO2*%
%ADD13MACRO3*%
%ADD14C,1.7016*%

%LPD*%
D10*
G01*
X5829300Y12611100D03*
G01*
X6083300Y12611100D03*
G01*
X6337300Y12611100D03*
G01*
X6591300Y12611100D03*
G01*
X6845300Y12611100D03*
D11*
G01*
X7099300Y12611100D03*
D12*
G01*
X951699Y11336197D03*
G01*
X951699Y12184202D03*
G01*
X951699Y9227997D03*
G01*
X951699Y10076002D03*
D13*
G01*
X5207000Y8813800D03*
D14*
G01*
X3683000Y9067800D03*
G01*
X3683000Y9575800D03*
G01*
X3683000Y10083800D03*
G01*
X3683000Y10591800D03*
G01*
X3683000Y11099800D03*
G01*
X3683000Y11607800D03*
G01*
X3683000Y12115800D03*
G01*
X5207000Y12369800D03*
G01*
X5207000Y11861800D03*
G01*
X5207000Y11353800D03*
G01*
X5207000Y10845800D03*
G01*
X5207000Y10337800D03*
G01*
X5207000Y9829800D03*
G01*
X5207000Y9321800D03*
G01*
X5207000Y9067800D03*
G01*
X5207000Y9575800D03*
G01*
X5207000Y10083800D03*
G01*
X5207000Y10591800D03*
G01*
X5207000Y11099800D03*
G01*
X5207000Y11607800D03*
G01*
X5207000Y12115800D03*
G01*
X3683000Y12369800D03*
G01*
X3683000Y11861800D03*
G01*
X3683000Y11353800D03*
G01*
X3683000Y10845800D03*
G01*
X3683000Y10337800D03*
G01*
X3683000Y9829800D03*
G01*
X3683000Y9321800D03*
D13*
G01*
X3683000Y8813800D03*
M02*
