G04 Layer: BottomLayer*
G04 EasyEDA v6.5.44, 2024-08-27 10:33:55*
G04 3fde5a6329554247a190ecd3801b01c9,e183ea938b1e48739b2e3e039e877233,10*
G04 Gerber Generator version 0.2*
G04 Scale: 100 percent, Rotated: No, Reflected: No *
G04 Dimensions in millimeters *
G04 leading zeros omitted , absolute positions ,4 integer and 5 decimal *
%FSLAX45Y45*%
%MOMM*%

%ADD10C,0.2540*%
%ADD11R,5.0000X1.3000*%
%ADD12C,1.5748*%
%ADD13R,1.5748X1.5748*%
%ADD14R,1.6000X1.6000*%
%ADD15C,1.6000*%

%LPD*%
D10*
X5207000Y11099800D02*
G01*
X5083098Y11223701D01*
X5083098Y11644579D01*
X5173319Y11734800D01*
X5244211Y11734800D01*
X5829300Y12319888D01*
X5829300Y12611100D01*
X5207000Y11607800D02*
G01*
X5588000Y11607800D01*
X6591300Y12611100D01*
X3683000Y9575800D02*
G01*
X5080000Y10972800D01*
X5258536Y10972800D01*
X6845300Y12559563D01*
X6845300Y12611100D01*
D11*
G01*
X951712Y11336197D03*
G01*
X951712Y12184202D03*
G01*
X951712Y9227997D03*
G01*
X951712Y10076002D03*
D12*
G01*
X5829300Y12611100D03*
G01*
X6083300Y12611100D03*
G01*
X6337300Y12611100D03*
G01*
X6591300Y12611100D03*
G01*
X6845300Y12611100D03*
D13*
G01*
X7099300Y12611100D03*
D14*
G01*
X5207000Y8813800D03*
D15*
G01*
X3683000Y9067800D03*
G01*
X3683000Y9575800D03*
G01*
X3683000Y10083800D03*
G01*
X3683000Y10591800D03*
G01*
X3683000Y11099800D03*
G01*
X3683000Y11607800D03*
G01*
X3683000Y12115800D03*
G01*
X5207000Y12369800D03*
G01*
X5207000Y11861800D03*
G01*
X5207000Y11353800D03*
G01*
X5207000Y10845800D03*
G01*
X5207000Y10337800D03*
G01*
X5207000Y9829800D03*
G01*
X5207000Y9321800D03*
G01*
X5207000Y9067800D03*
G01*
X5207000Y9575800D03*
G01*
X5207000Y10083800D03*
G01*
X5207000Y10591800D03*
G01*
X5207000Y11099800D03*
G01*
X5207000Y11607800D03*
G01*
X5207000Y12115800D03*
G01*
X3683000Y12369800D03*
G01*
X3683000Y11861800D03*
G01*
X3683000Y11353800D03*
G01*
X3683000Y10845800D03*
G01*
X3683000Y10337800D03*
G01*
X3683000Y9829800D03*
G01*
X3683000Y9321800D03*
D14*
G01*
X3683000Y8813800D03*
M02*
