G04 Layer: TopPasteMaskLayer*
G04 EasyEDA v6.5.44, 2024-08-27 10:33:55*
G04 3fde5a6329554247a190ecd3801b01c9,e183ea938b1e48739b2e3e039e877233,10*
G04 Gerber Generator version 0.2*
G04 Scale: 100 percent, Rotated: No, Reflected: No *
G04 Dimensions in millimeters *
G04 leading zeros omitted , absolute positions ,4 integer and 5 decimal *
%FSLAX45Y45*%
%MOMM*%

%ADD10R,3.0000X1.0000*%
%ADD11R,5.0000X1.3000*%
%ADD12R,1.0540X0.8260*%

%LPD*%
G36*
X3123996Y11980976D02*
G01*
X3113989Y11971020D01*
X3113989Y11842496D01*
X3123996Y11832488D01*
X3161030Y11832488D01*
X3171037Y11842496D01*
X3171037Y11872976D01*
X3181045Y11882983D01*
X3219754Y11882983D01*
X3229762Y11872976D01*
X3229762Y11842496D01*
X3239770Y11832488D01*
X3276803Y11832488D01*
X3286810Y11842496D01*
X3286810Y11971020D01*
X3276803Y11980976D01*
G37*
G36*
X3123996Y11662511D02*
G01*
X3113989Y11652504D01*
X3113989Y11523980D01*
X3123996Y11514023D01*
X3276803Y11514023D01*
X3286810Y11523980D01*
X3286810Y11652504D01*
X3276803Y11662511D01*
X3239770Y11662511D01*
X3229762Y11652504D01*
X3229762Y11622024D01*
X3219754Y11612016D01*
X3181045Y11612016D01*
X3171037Y11622024D01*
X3171037Y11652504D01*
X3161030Y11662511D01*
G37*
G36*
X3111296Y9847376D02*
G01*
X3101289Y9837420D01*
X3101289Y9708896D01*
X3111296Y9698888D01*
X3148330Y9698888D01*
X3158337Y9708896D01*
X3158337Y9739376D01*
X3168345Y9749383D01*
X3207054Y9749383D01*
X3217062Y9739376D01*
X3217062Y9708896D01*
X3227070Y9698888D01*
X3264103Y9698888D01*
X3274110Y9708896D01*
X3274110Y9837420D01*
X3264103Y9847376D01*
G37*
G36*
X3111296Y9528911D02*
G01*
X3101289Y9518904D01*
X3101289Y9390380D01*
X3111296Y9380423D01*
X3264103Y9380423D01*
X3274110Y9390380D01*
X3274110Y9518904D01*
X3264103Y9528911D01*
X3227070Y9528911D01*
X3217062Y9518904D01*
X3217062Y9488424D01*
X3207054Y9478416D01*
X3168345Y9478416D01*
X3158337Y9488424D01*
X3158337Y9518904D01*
X3148330Y9528911D01*
G37*
G36*
X1764182Y11523522D02*
G01*
X1761794Y11521084D01*
X1761794Y11488166D01*
X1764182Y11485778D01*
X1791817Y11485778D01*
X1794205Y11488166D01*
X1794205Y11521084D01*
X1791817Y11523522D01*
G37*
G36*
X1764182Y11577421D02*
G01*
X1761794Y11575034D01*
X1761794Y11542115D01*
X1764182Y11539677D01*
X1791817Y11539677D01*
X1794205Y11542115D01*
X1794205Y11575034D01*
X1791817Y11577421D01*
G37*
G36*
X1789582Y9415322D02*
G01*
X1787194Y9412884D01*
X1787194Y9379966D01*
X1789582Y9377578D01*
X1817217Y9377578D01*
X1819605Y9379966D01*
X1819605Y9412884D01*
X1817217Y9415322D01*
G37*
G36*
X1789582Y9469221D02*
G01*
X1787194Y9466834D01*
X1787194Y9433915D01*
X1789582Y9431477D01*
X1817217Y9431477D01*
X1819605Y9433915D01*
X1819605Y9466834D01*
X1817217Y9469221D01*
G37*
G36*
X1577086Y11977725D02*
G01*
X1550212Y11959336D01*
X1550212Y11942064D01*
X1577086Y11923674D01*
X1626717Y11923674D01*
X1630730Y11927687D01*
X1630730Y11973712D01*
X1626717Y11977725D01*
G37*
G36*
X1446682Y11977725D02*
G01*
X1442669Y11973712D01*
X1442669Y11927687D01*
X1446682Y11923674D01*
X1496314Y11923674D01*
X1523187Y11942064D01*
X1523187Y11959336D01*
X1496314Y11977725D01*
G37*
G36*
X2072386Y11977725D02*
G01*
X2045512Y11959336D01*
X2045512Y11942064D01*
X2072386Y11923674D01*
X2122017Y11923674D01*
X2126030Y11927687D01*
X2126030Y11973712D01*
X2122017Y11977725D01*
G37*
G36*
X1941982Y11977725D02*
G01*
X1937969Y11973712D01*
X1937969Y11927687D01*
X1941982Y11923674D01*
X1991614Y11923674D01*
X2018487Y11942064D01*
X2018487Y11959336D01*
X1991614Y11977725D01*
G37*
G36*
X1589786Y9894925D02*
G01*
X1562912Y9876536D01*
X1562912Y9859264D01*
X1589786Y9840874D01*
X1639417Y9840874D01*
X1643430Y9844887D01*
X1643430Y9890912D01*
X1639417Y9894925D01*
G37*
G36*
X1459382Y9894925D02*
G01*
X1455369Y9890912D01*
X1455369Y9844887D01*
X1459382Y9840874D01*
X1509014Y9840874D01*
X1535887Y9859264D01*
X1535887Y9876536D01*
X1509014Y9894925D01*
G37*
G36*
X2072386Y9894925D02*
G01*
X2045512Y9876536D01*
X2045512Y9859264D01*
X2072386Y9840874D01*
X2122017Y9840874D01*
X2126030Y9844887D01*
X2126030Y9890912D01*
X2122017Y9894925D01*
G37*
G36*
X1941982Y9894925D02*
G01*
X1937969Y9890912D01*
X1937969Y9844887D01*
X1941982Y9840874D01*
X1991614Y9840874D01*
X2018487Y9859264D01*
X2018487Y9876536D01*
X1991614Y9894925D01*
G37*
D10*
G01*
X851712Y11760200D03*
D11*
G01*
X951712Y11336197D03*
G01*
X951712Y12184202D03*
D10*
G01*
X851712Y9652000D03*
D11*
G01*
X951712Y9227997D03*
G01*
X951712Y10076002D03*
D12*
G01*
X2463800Y11734800D03*
G01*
X2667000Y11800839D03*
G01*
X2667000Y11668760D03*
G01*
X2413000Y9601200D03*
G01*
X2616200Y9667239D03*
G01*
X2616200Y9535160D03*
M02*
